PathFileType	4	(X/Y/Z)	/Users/itak/Documents/Research/Walk-IL/dataset/trc/00161_00008.trc
DataRate	CameraRate	NumFrames	NumMarkers	Units	OrigDataRate	OrigDataStartFrame	OrigNumFrames
100.000000	100.000000	4	53	mm	100.000000	213	570
Frame#	Time	RPSI			LPSI			L3			STRN			T10			C7			CLAV			RBAK			LBAK			LSHO			LUPA			LAEL			LAOL			LWTS			LWPS			LFRA			LIFD			LHPS			LHTS			RSHO			RUPA			RAEL			RAOL			RWTS			RWPS			RFRA			RIFD			RHTS			RHPS			RBHD			LFHD			RFHD			LBHD			LHIP			RHIP			RASI			LASI			LKNE			LTHI			LANK			LTIP			LTOE			LMT1			LMT5			LHEE			RKNE			RANK			RTIP			RTOE			RMT1			RMT5			RHEE			RTHI			
		X1	Y1	Z1	X2	Y2	Z2	X3	Y3	Z3	X4	Y4	Z4	X5	Y5	Z5	X6	Y6	Z6	X7	Y7	Z7	X8	Y8	Z8	X9	Y9	Z9	X10	Y10	Z10	X11	Y11	Z11	X12	Y12	Z12	X13	Y13	Z13	X14	Y14	Z14	X15	Y15	Z15	X16	Y16	Z16	X17	Y17	Z17	X18	Y18	Z18	X19	Y19	Z19	X20	Y20	Z20	X21	Y21	Z21	X22	Y22	Z22	X23	Y23	Z23	X24	Y24	Z24	X25	Y25	Z25	X26	Y26	Z26	X27	Y27	Z27	X28	Y28	Z28	X29	Y29	Z29	X30	Y30	Z30	X31	Y31	Z31	X32	Y32	Z32	X33	Y33	Z33	X34	Y34	Z34	X35	Y35	Z35	X36	Y36	Z36	X37	Y37	Z37	X38	Y38	Z38	X39	Y39	Z39	X40	Y40	Z40	X41	Y41	Z41	X42	Y42	Z42	X43	Y43	Z43	X44	Y44	Z44	X45	Y45	Z45	X46	Y46	Z46	X47	Y47	Z47	X48	Y48	Z48	X49	Y49	Z49	X50	Y50	Z50	X51	Y51	Z51	X52	Y52	Z52	X53	Y53	Z53	

214	2.13	-1602.465454101562	1033.575439453125	81.47035217285156	-1595.44384765625	1036.523559570312	-41.11328506469727	-1597.28955078125	1072.6640625	26.94091987609863	-1321.359619140625	1265.6953125	22.96398735046387	-1621.349731445312	1233.293579101562	27.48907279968262	-1537.287963867188	1497.644653320312	5.298431873321533	-1340.64111328125	1380.820922851562	6.964794158935547	-1613.992065429688	1332.407470703125	124.343132019043	-1548.397216796875	1468.205932617188	-95.35062408447266	-1475.652954101562	1444.888916015625	-176.4732360839844	-1524.860229492188	1311.440673828125	-239.9767150878906	-1540.98193359375	1095.6796875	-240.9517517089844	-1575.368286132812	1089.499633789062	-159.3887634277344	-1469.335571289062	847.84521484375	-219.3973693847656	-1558.911010742188	843.4894409179688	-243.4993591308594	-1548.622314453125	985.5159301757812	-251.4835510253906	-1488.335327148438	662.9344482421875	-194.6770935058594	-1551.257080078125	771.1451416015625	-241.0446166992188	-1477.546020507812	768.3487548828125	-237.2365570068359	-1468.72802734375	1479.37109375	185.8470916748047	-1488.10205078125	1416.213256835938	260.0171813964844	-1506.0107421875	1127.0986328125	323.4955444335938	-1528.400268554688	1120.8037109375	228.2029418945312	-1380.324951171875	893.8226928710938	275.9900207519531	-1445.882690429688	879.7451782226562	336.4745788574219	-1479.507202148438	1052.998901367188	335.98291015625	-1381.611694335938	705.7889404296875	249.8395538330078	-1357.210571289062	798.1517333984375	279.4593200683594	-1422.030517578125	795.090087890625	327.6160888671875	-1486.444091796875	1648.807373046875	74.55287170410156	-1342.80419921875	1703.485595703125	-80.59918212890625	-1324.352416992188	1710.592529296875	47.57024002075195	-1511.80615234375	1647.934936523438	-60.67442321777344	-1482.2177734375	982.4641723632812	-156.3298950195312	-1466.052856445312	976.089599609375	216.9371948242188	-1376.051635742188	1004.919067382812	172.6591796875	-1361.702880859375	1012.833801269531	-83.59101867675781	-1284.86328125	506.8671569824219	-115.8878479003906	-1335.425415039062	640.935546875	-151.1536712646484	-1263.87744140625	40.07003402709961	-121.1242446899414	-1264.755493164062	276.5429382324219	-132.1349029541016	-1047.092407226562	54.45022583007812	-96.72104644775391	-1094.900756835938	46.73159027099609	-48.59223937988281	-1156.081176757812	38.90515899658203	-157.2877502441406	-1312.7060546875	39.37850189208984	-50.32524871826172	-1574.27294921875	493.5029602050781	174.61669921875	-1875.592163085938	89.62537384033203	142.0442657470703	-1615.40869140625	374.6114501953125	154.1947326660156	-1670.11279296875	37.21489715576172	123.8828964233398	-1714.347290039062	39.4307861328125	74.7529296875	-1780.00146484375	37.20304489135742	183.3674926757812	-1915.277709960938	122.4014511108398	71.51909637451172	-1459.388427734375	742.4027099609375	214.0953826904297	
215	2.14	-1592.141845703125	1035.565795898438	79.52174377441406	-1585.42919921875	1038.741577148438	-43.04935836791992	-1587.200439453125	1074.812866210938	25.00999450683594	-1311.7861328125	1268.188842773438	20.77452659606934	-1611.723876953125	1234.994506835938	25.30064964294434	-1528.414916992188	1499.5693359375	2.725534915924072	-1331.442993164062	1383.216918945312	4.685710906982422	-1604.680297851562	1334.260498046875	122.0266265869141	-1539.3291015625	1469.964233398438	-97.85993194580078	-1466.4248046875	1446.83837890625	-178.8745422363281	-1515.001953125	1313.215209960938	-242.3986358642578	-1530.195556640625	1097.2783203125	-243.1148071289062	-1564.93212890625	1091.169067382812	-161.7104949951172	-1457.536865234375	849.8051147460938	-220.4380493164062	-1546.929565429688	844.9833374023438	-245.1942596435547	-1537.239135742188	987.0454711914062	-253.4124603271484	-1476.070434570312	664.8755493164062	-194.8860015869141	-1538.990234375	772.641845703125	-242.3454437255859	-1465.335571289062	770.1322631835938	-238.0288238525391	-1459.887451171875	1481.69775390625	183.3009948730469	-1479.28173828125	1418.686157226562	257.5303344726562	-1497.538818359375	1129.609252929688	321.17333984375	-1519.463989257812	1123.286254882812	225.8109588623047	-1371.540161132812	896.3700561523438	273.809326171875	-1437.236083984375	882.2066650390625	334.1393737792969	-1471.023559570312	1055.458129882812	333.7226257324219	-1372.5458984375	708.3941040039062	247.4559326171875	-1348.319091796875	800.7484741210938	277.2260131835938	-1413.232788085938	797.5773315429688	325.2453308105469	-1478.184936523438	1650.996948242188	71.65802764892578	-1334.305297851562	1705.75537109375	-83.17607879638672	-1316.241333007812	1713.205688476562	45.00891494750977	-1503.199951171875	1649.752075195312	-63.61848449707031	-1472.192626953125	984.8377075195312	-158.3172454833984	-1456.322387695312	977.6766967773438	214.7441253662109	-1365.841674804688	1006.927612304688	170.5280151367188	-1351.926147460938	1015.038635253906	-85.57646942138672	-1277.7109375	507.8380737304688	-116.5604248046875	-1326.803588867188	642.5620727539062	-151.6721801757812	-1263.54541015625	40.26018142700195	-121.1565170288086	-1260.511474609375	276.8572387695312	-132.4706726074219	-1046.671142578125	53.44657897949219	-96.28306579589844	-1094.626342773438	45.99912261962891	-48.16166305541992	-1155.603515625	38.89995956420898	-157.1569519042969	-1312.527954101562	39.60694885253906	-50.52366256713867	-1564.138305664062	494.878662109375	174.6936950683594	-1871.935302734375	95.00627136230469	142.9541778564453	-1607.040283203125	376.2035522460938	154.8043975830078	-1670.089965820312	37.25316619873047	123.9057235717773	-1713.30712890625	39.35365676879883	74.70079040527344	-1778.337524414062	38.44322967529297	183.6099090576172	-1910.30078125	129.6314697265625	72.61261749267578	-1449.348510742188	744.2098999023438	212.3105926513672	
216	2.15	-1581.8583984375	1037.6201171875	77.46439361572266	-1575.32177734375	1040.9580078125	-45.09526443481445	-1577.092529296875	1076.957641601562	22.94476509094238	-1302.179443359375	1270.731689453125	18.55241203308105	-1602.0693359375	1236.710815429688	23.05051422119141	-1519.556884765625	1501.526977539062	0.1645294725894928	-1322.230346679688	1385.675537109375	2.404121160507202	-1595.32958984375	1336.108520507812	119.6976165771484	-1530.26904296875	1471.761474609375	-100.3406829833984	-1457.197631835938	1448.875	-181.2470245361328	-1505.105834960938	1315.071411132812	-244.8166046142578	-1519.244995117188	1098.955932617188	-245.3651123046875	-1554.357055664062	1092.8759765625	-164.1405029296875	-1445.378051757812	851.913330078125	-221.5451354980469	-1534.5810546875	846.5576782226562	-247.0581665039062	-1525.585327148438	988.65283203125	-255.4566802978516	-1463.384643554688	666.9384155273438	-195.2053070068359	-1526.289916992188	774.21923828125	-243.8078460693359	-1452.70654296875	772.05126953125	-238.9225921630859	-1451.040405273438	1484.033935546875	180.7581634521484	-1470.425537109375	1421.177612304688	255.0502777099609	-1489.016845703125	1132.149536132812	318.894775390625	-1510.494995117188	1125.773315429688	223.4487915039062	-1362.6640625	898.9707641601562	271.6274719238281	-1428.491577148438	884.6956787109375	331.80908203125	-1462.49072265625	1057.94189453125	331.4904174804688	-1363.304321289062	711.0623779296875	245.0053558349609	-1339.319702148438	803.4012451171875	274.9649353027344	-1404.310302734375	800.0891723632812	322.8372497558594	-1469.85791015625	1653.2861328125	68.77354431152344	-1325.74560546875	1707.9951171875	-85.78737640380859	-1308.049926757812	1715.831298828125	42.40642547607422	-1494.552856445312	1651.6240234375	-66.54647064208984	-1462.09765625	987.0900268554688	-160.3591003417969	-1446.553344726562	979.3853759765625	212.4581604003906	-1355.7080078125	1009.056884765625	168.3076171875	-1342.119384765625	1017.208190917969	-87.64292144775391	-1270.88671875	508.6510009765625	-117.2827758789062	-1318.54052734375	644.0255126953125	-152.1712188720703	-1263.25341796875	40.44758224487305	-121.1837844848633	-1256.530883789062	277.0903625488281	-132.8021697998047	-1046.31982421875	52.60898208618164	-95.82815551757812	-1094.387939453125	45.39085388183594	-47.7426872253418	-1155.165771484375	38.94211196899414	-157.0405731201172	-1312.398681640625	39.77689361572266	-50.70263671875	-1553.244262695312	496.0536499023438	174.9334564208984	-1867.8330078125	100.6304397583008	143.7574615478516	-1597.987670898438	377.6127014160156	155.6048889160156	-1670.156005859375	37.29727554321289	123.9330673217773	-1712.175170898438	39.25386428833008	74.62075042724609	-1776.551635742188	39.83254623413086	183.8526153564453	-1904.614135742188	137.0472259521484	73.56124114990234	-1439.004516601562	746.0707397460938	210.5633697509766	
217	2.16	-1571.6533203125	1039.679565429688	75.28075408935547	-1565.12744140625	1043.125244140625	-47.26376342773438	-1566.987670898438	1079.047241210938	20.73481941223145	-1292.564819335938	1273.28564453125	16.32181930541992	-1592.404174804688	1238.393798828125	20.71391296386719	-1510.7275390625	1503.4658203125	-2.378110647201538	-1313.019897460938	1388.15283203125	0.1432871967554092	-1585.97265625	1337.905029296875	117.3347473144531	-1521.223388671875	1473.55615234375	-102.7929077148438	-1447.976196289062	1450.961059570312	-183.585693359375	-1495.179077148438	1316.976440429688	-247.2334289550781	-1508.15234375	1100.683837890625	-247.6950378417969	-1543.656982421875	1094.589233398438	-166.6675720214844	-1432.90087890625	854.1419067382812	-222.7426147460938	-1521.878295898438	848.1802978515625	-249.0772552490234	-1513.689819335938	990.3101806640625	-257.6124572753906	-1450.270385742188	669.0999755859375	-195.6695709228516	-1513.168090820312	775.8506469726562	-245.4325866699219	-1439.660400390625	774.0855102539062	-239.9322204589844	-1442.227172851562	1486.334838867188	178.226318359375	-1461.569091796875	1423.638061523438	252.5846557617188	-1480.442016601562	1134.671997070312	316.6725769042969	-1501.500244140625	1128.20654296875	221.1336517333984	-1353.68994140625	901.5827026367188	269.43701171875	-1419.614624023438	887.1691284179688	329.4985046386719	-1453.89306640625	1060.409301757812	329.2946166992188	-1353.9052734375	713.7438354492188	242.4927825927734	-1330.202270507812	806.0671997070312	272.6627197265625	-1395.237915039062	802.5842895507812	320.4056091308594	-1461.481811523438	1655.632934570312	65.91476440429688	-1317.14013671875	1710.15771484375	-88.42038726806641	-1299.792846679688	1718.425048828125	39.7772102355957	-1485.8818359375	1653.509521484375	-69.44463348388672	-1451.930419921875	989.1630249023438	-162.4411773681641	-1436.787475585938	981.1813354492188	210.0980224609375	-1345.694946289062	1011.276184082031	166.0278625488281	-1332.251098632812	1019.304809570312	-89.76475524902344	-1264.45703125	509.2525024414062	-118.0532989501953	-1310.731079101562	645.2413940429688	-152.7339630126953	-1262.974731445312	40.6484375	-121.1821899414062	-1252.830688476562	277.2094421386719	-133.09765625	-1045.978393554688	51.80945205688477	-95.35551452636719	-1094.15185546875	44.82168579101562	-47.33344268798828	-1154.751831054688	39.00262451171875	-156.9251861572266	-1312.296997070312	39.91083145141602	-50.84203720092773	-1541.561889648438	496.9650268554688	175.3342742919922	-1863.255737304688	106.5250930786133	144.4170379638672	-1588.202758789062	378.78955078125	156.5977325439453	-1670.296264648438	37.32876586914062	123.9618377685547	-1710.941162109375	39.17446136474609	74.5194091796875	-1774.646728515625	41.42239761352539	184.0692291259766	-1898.182373046875	144.6546020507812	74.31874847412109	-1428.369140625	747.9470825195312	208.8808746337891	
